<svg xmlns="http://www.w3.org/2000/svg" viewBox="0 0 216 216" fill="#fff">
	<path d="M108.022,15.784c-50.815,0-92.156,41.341-92.156,92.156s41.341,92.156,92.156,92.156
	c50.814,0,92.156-41.341,92.156-92.156S158.837,15.784,108.022,15.784z M168.953,58.282
	c10.963,13.395,17.602,30.455,17.775,49.034c-2.596-0.549-28.619-5.827-54.812-2.534c-0.552-1.348-1.116-2.702-1.695-4.063
	c-1.635-3.838-3.391-7.652-5.223-11.401C154.103,77.437,167.294,60.527,168.953,58.282z M108.022,29.345
	c20.001,0,38.279,7.502,52.18,19.835c-1.416,2.017-13.265,17.943-41.255,28.434c-12.898-23.699-27.195-43.167-29.371-46.081
	C95.496,30.106,101.671,29.345,108.022,29.345z M74.557,36.824c2.075,2.846,16.141,22.338,29.184,45.523
	c-36.82,9.778-69.25,9.637-72.771,9.59C36.074,67.512,52.535,47.211,74.557,36.824z M29.307,108.06
	c0-0.804,0.016-1.605,0.04-2.405c3.444,0.071,41.589,0.562,80.899-11.202c2.253,4.41,4.405,8.887,6.382,13.358
	c-1.042,0.293-2.076,0.605-3.103,0.937c-40.596,13.122-62.199,48.892-63.982,51.943C36.971,146.736,29.307,128.277,29.307,108.06z
	 M108.022,186.775c-18.197,0-34.97-6.209-48.316-16.617c1.417-2.896,17.354-33.685,61.752-49.156
	c0.173-0.06,0.346-0.116,0.519-0.175c11.052,28.718,15.622,52.786,16.793,59.692C129.319,184.545,118.927,186.775,108.022,186.775
	z M152.004,173.313c-0.808-4.789-4.997-27.832-15.293-56.124c24.667-3.948,46.338,2.516,49.031,3.365
	C182.233,142.457,169.662,161.372,152.004,173.313z"/>
</svg>
