<?xml version="1.0" encoding="utf-8"?>
<svg version="1.1" xmlns="http://www.w3.org/2000/svg" width="1024px" height="721px" viewBox="0 0 1024 721">
<path opacity="0.12" fill-rule="evenodd" clip-rule="evenodd" d="M407,206l242.042,161.625L683,350L407,206z"/>
<g id="Lozenge">
	<g>
		<path fill="#fff" d="M1013.023,156.281c0,0-9.981-70.389-40.606-101.386c-38.842-40.684-82.38-40.885-102.346-43.267
			C727.134,1.296,512.721,1.296,512.721,1.296h-0.444c0,0-214.408,0-357.35,10.333c-19.967,2.381-63.49,2.583-102.346,43.267
			C21.956,85.892,11.99,156.281,11.99,156.281S1.775,238.94,1.775,321.6v77.493c0,82.658,10.215,165.317,10.215,165.317
			s9.966,70.39,40.591,101.387c38.856,40.684,89.896,39.397,112.629,43.661c81.718,7.836,347.29,10.261,347.29,10.261
			s214.634-0.323,357.571-10.655c19.966-2.382,63.504-2.583,102.346-43.267c30.625-30.997,40.606-101.387,40.606-101.387
			s10.2-82.659,10.2-165.317V321.6C1023.224,238.94,1013.023,156.281,1013.023,156.281z M407.047,493L407,206l276,144L407.047,493z"
			/>
	</g>
</g>
</svg>
