<svg version="1.1" xmlns="http://www.w3.org/2000/svg" width="287.6px" height="169.9px" viewBox="0 0 287.6 169.9" fill="#fff">
<g>
	<g>
		<path d="M15.2,0v38.2h15.3V49h-28V0H15.2z"/>
		<path d="M64.7,40.5H47.1L43.8,49H30.2L49.1,0H63l18.5,49H67.9L64.7,40.5z M61.3,30.8l-5.2-15.6h-0.1l-5.3,15.6
			H61.3z"/>
		<path d="M88.4,0l8.5,31.7H97L107.3,0h10.1l9.6,31.7h0.1L136.4,0h13.3L134,49h-13l-8.6-28.4h-0.1L102.7,49H89.7
			L75.1,0H88.4z"/>
		<path d="M152.9,49V0h12.7L189,30h0.1V0h12.7v49h-12.7l-23.3-30h-0.1v30H152.9z"/>
		<path d="M37.5,60.8v15.3c-1.3-1.7-2.9-3.1-4.9-4c-2-0.9-4.1-1.4-6.3-1.4c-3.9,0-7,1.3-9.4,3.9
			c-2.4,2.6-3.6,5.8-3.6,9.7c0,3.9,1.2,7.1,3.7,9.6c2.4,2.5,5.6,3.7,9.6,3.7c2.1,0,4.1-0.5,6-1.4c2-0.9,3.6-2.2,4.9-3.8v15.3
			c-4.9,1.5-8.7,2.3-11.2,2.3c-7,0-13.1-2.4-18.4-7.2C2.6,98,0,91.8,0,84.2c0-7,2.4-13,7.2-17.9c2.4-2.5,5.3-4.4,8.6-5.8
			c3.3-1.4,6.7-2.1,10.1-2.1C29.7,58.3,33.5,59.1,37.5,60.8z"/>
		<path d="M58.1,78.5h18.4V59.6h12.7v49H76.5V88.5H58.1v20.1H45.4v-49h12.7V78.5z"/>
		<path d="M127.6,100.1h-17.6l-3.4,8.5H93.2l18.9-49H126l18.5,49h-13.6L127.6,100.1z M124.2,90.4L119,74.8h-0.1
			l-5.3,15.6H124.2z"/>
		<path d="M161.1,59.6v49h-12.7v-49H161.1z"/>
		<path d="M194.8,88.5l15.4,20.1h-15.9l-12-18.9h-0.1v18.9h-12.7v-49h19.1c5.1,0,9.2,1.3,12.4,3.8
			c3.1,2.5,4.7,6.3,4.7,11.3c0,3.5-0.9,6.5-2.8,9.1C200.8,86.4,198.2,87.9,194.8,88.5z M182.2,69.4v12.2h1.2c5.9,0,8.8-2,8.8-6.1
			c0-4.1-2.9-6.1-8.8-6.1H182.2z"/>
		<path d="M34.5,121.9l-5.1,9.9c-2.6-2.2-5.4-3.3-8.5-3.3c-1.3,0-2.6,0.4-3.7,1.1c-1.1,0.7-1.7,1.7-1.7,3
			c0,0.9,0.4,1.6,1.1,2.3c0.7,0.7,1.4,1.2,2,1.4c0.6,0.3,1.5,0.6,2.6,0.9l3.3,1c3.8,1.1,6.8,2.7,8.9,4.8c2.1,2.1,3.2,4.9,3.2,8.6
			c0,5.9-1.7,10.3-5.1,13.2c-3.6,3.1-8.3,4.6-13.9,4.6c-6.2,0-11.9-1.9-17.2-5.6l5.5-10.3c3.9,3.4,7.6,5.1,11.3,5.1
			c1.6,0,3.1-0.4,4.3-1.3c1.2-0.8,1.9-2.1,1.9-3.7c0-2.2-2.1-3.9-6.2-5.1c-0.1,0-0.7-0.2-1.6-0.5c-2.3-0.7-4.2-1.3-5.5-1.8
			c-1.3-0.6-2.7-1.4-4-2.4c-1.3-1-2.3-2.3-2.9-3.9c-0.6-1.6-0.8-3.5-0.8-5.8c0-4.9,1.6-8.9,4.7-11.9c3.2-3,7.2-4.5,12.2-4.5
			c2.5,0,5.1,0.4,7.9,1.1C29.8,119.8,32.3,120.7,34.5,121.9z"/>
		<path d="M62,130v38.2H49.3V130H38.8v-10.8h33.8V130H62z"/>
		<path d="M107,119.2h12.7v27.6c0,4-0.3,7.3-0.9,10c-0.6,2.7-2,5.1-4.2,7.3c-3.7,3.6-9.1,5.5-16.3,5.5
			c-7.2,0-12.6-1.8-16.3-5.5c-2.2-2.1-3.6-4.5-4.2-7.3c-0.6-2.7-0.9-6.1-0.9-10v-27.6h12.7V145c0,1.6,0,2.9,0.1,3.9
			c0.1,1,0.3,2.2,0.6,3.5c0.3,1.3,0.8,2.3,1.4,3.1c0.6,0.8,1.4,1.4,2.6,2c1.1,0.5,2.5,0.8,4,0.8c1.6,0,2.9-0.3,4-0.8
			c1.1-0.5,2-1.2,2.6-2c0.6-0.8,1-1.8,1.4-3.1s0.5-2.5,0.6-3.5c0.1-1,0.1-2.3,0.1-3.9V119.2z"/>
		<path d="M127.8,168.2v-49h18.1c6.8,0,12.7,2.4,17.6,7.1c4.9,4.7,7.3,10.5,7.3,17.4c0,6.9-2.4,12.6-7.3,17.4
			c-4.9,4.7-10.7,7.1-17.6,7.1H127.8z M140.5,130v27.4h2.9c4.1,0,7.4-1.1,10.1-3.4c2.7-2.3,4-5.7,4-10.3c0-4.3-1.3-7.7-3.8-10.1
			c-2.6-2.4-5.9-3.6-10.1-3.6H140.5z"/>
		<path d="M189.4,119.2v49h-12.7v-49H189.4z"/>
		<path d="M209.1,120.7c4.1-2.1,8.5-3.2,13.3-3.2c4.7,0,9.1,1.1,13.3,3.2c4.1,2.1,7.5,5.1,10,9
			c2.6,3.9,3.8,8.3,3.8,13.1c0,7.9-2.5,14.4-7.6,19.5c-5.1,5.1-11.6,7.6-19.5,7.6c-7.9,0-14.4-2.5-19.5-7.6
			c-5.1-5.1-7.6-11.5-7.6-19.5c0-4.8,1.3-9.2,3.8-13.1C201.7,125.8,205,122.8,209.1,120.7z M232.1,133.8c-2.7-2.6-6-3.9-9.8-3.9
			c-3.8,0-7,1.3-9.8,3.9c-2.7,2.6-4.1,5.6-4.1,9c0,4.2,1.3,7.6,4,10.4c2.7,2.8,6,4.2,9.8,4.2c3.9,0,7.1-1.4,9.8-4.2
			c2.7-2.8,4-6.3,4-10.4C236.2,139.5,234.9,136.4,232.1,133.8z"/>
		<path d="M285.6,121.9l-5.1,9.9c-2.6-2.2-5.4-3.3-8.5-3.3c-1.3,0-2.6,0.4-3.7,1.1c-1.1,0.7-1.7,1.7-1.7,3
			c0,0.9,0.4,1.6,1.1,2.3c0.7,0.7,1.4,1.2,2,1.4c0.6,0.3,1.5,0.6,2.6,0.9l3.3,1c3.8,1.1,6.8,2.7,8.9,4.8c2.1,2.1,3.2,4.9,3.2,8.6
			c0,5.9-1.7,10.3-5.1,13.2c-3.6,3.1-8.3,4.6-13.9,4.6c-6.2,0-11.9-1.9-17.2-5.6l5.5-10.3c3.9,3.4,7.6,5.1,11.3,5.1
			c1.6,0,3.1-0.4,4.3-1.3c1.2-0.8,1.9-2.1,1.9-3.7c0-2.2-2.1-3.9-6.2-5.1c-0.1,0-0.7-0.2-1.6-0.5c-2.3-0.7-4.2-1.3-5.5-1.8
			c-1.3-0.6-2.7-1.4-4-2.4c-1.3-1-2.3-2.3-2.9-3.9c-0.6-1.6-0.8-3.5-0.8-5.8c0-4.9,1.6-8.9,4.7-11.9c3.2-3,7.2-4.5,12.2-4.5
			c2.5,0,5.1,0.4,7.9,1.1C281,119.8,283.4,120.7,285.6,121.9z"/>
	</g>
</g>
</svg>